<?xml version="1.0" standalone="no"?><!DOCTYPE svg PUBLIC "-//W3C//DTD SVG 1.1//EN" "http://www.w3.org/Graphics/SVG/1.1/DTD/svg11.dtd"><svg t="1747644988410" class="icon" viewBox="0 0 1024 1024" version="1.1" xmlns="http://www.w3.org/2000/svg" p-id="6237" xmlns:xlink="http://www.w3.org/1999/xlink" width="200" height="200"><path d="M652.117 246.784c29.238 12.096 62.88 5.387 85.227-17.003s29.013-56.032 16.875-85.248c-12.139-29.216-40.694-48.234-72.32-48.181a78.025 78.025 0 0 0-55.243 22.912 78.079 78.079 0 0 0-22.827 55.285c-0.01 31.616 19.062 60.139 48.288 72.235z" p-id="6238"></path><path d="M877.547 221.877c-60.246 78.432-162.528 92.886-249.515 44.939-6.027-3.253-32.288-16.619-38.07-19.872-139.989-76.981-279.743-46.87-373.482 74.933-39.872 51.808 52.288 100.843 91.69 49.643 48.193-62.89 109.995-81.077 177.345-61.205-34.454 55.541-64.576 110.72-107.104 189.152-42.528 78.432-136.619 140.96-226.859 91.914-65.173-35.178-123.968 51.563-59.03 86.742 114.337 60.928 255.52 35.69 341.675-61.078a55.339 55.339 0 0 0 8.192 3.371c60.246 19.52 139.275 71.328 163.371 89.76 24.096 18.432 65.419 111.925 89.995 158.912 29.76 57.11 126.016 15.541 96.384-41.803-27.467-53.376-74.816-159.754-111.798-186.741a923.493 923.493 0 0 0-134.09-84.33A5547.449 5547.449 0 0 1 648.896 382.72c113.845 32.288 222.037-5.781 299.019-105.781 39.872-51.808-30.976-106.262-70.368-55.062zM352.533 863.66h-192c-17.674 0-32 14.325-32 32s14.326 32 32 32h192c17.675 0 32-14.326 32-32s-14.325-32-32-32z" p-id="6239"></path><path d="M416.533 749.525h-192c-17.674 0-32 14.326-32 32s14.326 32 32 32h192c17.675 0 32-14.325 32-32s-14.325-32-32-32z" p-id="6240"></path></svg>