<?xml version="1.0" standalone="no"?><!DOCTYPE svg PUBLIC "-//W3C//DTD SVG 1.1//EN" "http://www.w3.org/Graphics/SVG/1.1/DTD/svg11.dtd"><svg t="1747541927950" class="icon" viewBox="0 0 1024 1024" version="1.1" xmlns="http://www.w3.org/2000/svg" p-id="11758" xmlns:xlink="http://www.w3.org/1999/xlink" width="200" height="200"><path d="M954.717 314.969c-10.791-1.295-16.891-0.13-16.891-0.13s-148.221 47.663-150.996 48.607c-20.286 6.68-101.557 38.719-125.258 44.018-22.648 5.023-42.943 10.43-65.834 13.866-0.771 7.434-2.471 15.007-5.56 23.204-6.274 16.67-26.692 24.663-26.692 24.663-32.606 57.601-82.864 82.556-218.494 84.613l-0.002-0.003c-0.004 0-0.007 0.003-0.011 0.003-0.083 0-0.19-0.003-0.275-0.004-5.492 66.126-20.387 154.141-22.808 173.601 0 0-14.108 85.103-14.894 96.303-0.001 0.017 0.015 0.035 0.013 0.052-3.038 44.349-14.493 149.019-17.416 164.861 0 0 76.101 3.693 74.852 15.247-0.756 7.02-14.333 17.457-26.692 14.591-12.358-2.861-58.746-0.129-63.393-0.305-11.151-0.435-21.961-6.437-19.779-16.947 1.64-7.993 5.491-15.115 5.006-20.114-2.424-25.596-9.846-102.131-12.368-133.104-0.597-7.146-0.993-14.513-1.238-22.072-0.008-0.242 0.067-0.42 0.068-0.657-0.879-30.453 4.234-63.916 8.661-98.989 0 0-4.502-45.419-7.698-73.196-3.001-26.08-7.533-70.368-11.297-113.096-22.014-8.784-34.349-16.681-52.977-29.629-28.847-20.046-152.047-110.869-168.25-152.557-0.828-1.622-1.517-3.406-1.887-5.555-5.677-33.011 93.935-142.324 100.065-151.54 15.562-23.379 45.413-59.416 67.997-86.005-10.968-6.018-9.165-7.892-5.171-10.85 0.99-0.736 2.072-1.023 3.183-1.122-12.171-11.403-23.747-23.197-19.189-28.134 7.826-8.483 21.422-11.643 31.777-8.337 6.05 1.936 13.157 6.311 19.63 11.844 6.425-10.899 23.688-40.015 29.195-47.613 4.153-5.72 23.267-32.344 32.577-23.727 9.309 8.619-21.075 52.985-22.031 62.669-0.466 4.827 3.293 11.897-1.6 21.433-4.344 8.493-11.915 11.905-17.033 14.647 2.5 3.527 4.298 5.409 4.298 5.409s122.092 94.78 124.428 96.545c17.065 12.819 91.566 60.905 109.444 77.335 19.533 15.182 29.135 17.116 51.049 34.033 0.201 0.188 0.277 0.463 0.452 0.668 6.093-2.769 12.911-3.885 19.837-3.655 2.56-1.743 12.924-9.168 21.938-19.789-1.263-0.994-2.394-2.118-3.571-3.198-5.569 0.671-9.723-2.115-12.065-4.693-18.789-20.724-25.824-41.029-25.499-58.953-2.671 0.07-5.152-0.426-7.205-1.984-9.849-7.44-6.261-27.62 8.029-45.047 14.29-17.426 33.857-25.524 43.7-18.067 1.343 1.016 2.355 2.21 3.161 3.51 2.513-0.611 5.02-1.083 7.487-1.232 40.597-2.464 58.869 11.623 64.81 35.238 5.561 8.997 11.269 22.957 1.457 37.65-5.057 7.594 10.384 31.749 6.576 36.298-1.164 1.386-4.21 2.623-7.388 3.989-1.136 0.494-1.164 1.12-1.03 2.087 0.198 1.489 1.143 4.212 1.143 4.212-0.014 0.033-0.016 0.064-0.03 0.097 0.229 0.071 0.445 0.164 0.599 0.372 1.988 2.709-0.089 4.2-1.312 4.837 0 0 3.023 1.092 1.994 4.203-0.19 0.565-1.12 1.735-2.485 1.975v0.008s-1.029 1.364-0.987 1.708c1.217 8.901 7.317 16.285-15.103 16.996-6.276 0.202-15.422-0.722-25.335-3.118-7.543 15.506-11.134 29.501-11.134 29.501l-1.781 17.02c0.41 1.773 0.833 3.625 1.232 5.346 36.962-11.495 133.662-34.241 190.102-40.12 0 0 48-19.69 153.694-35.555 0 0 76.55-27.859 79.021-16.579 2.467 11.269-41.991 44.217-56.816 42.417z m-621.157-78.8s-41.856-28.472-115.299-106.171l-1.104-0.365c-12.617 24.968-30.499 58.212-40.56 79.741a442.253 442.253 0 0 1-9.885 19.762c-0.07 0.132-0.166 0.202-0.238 0.331-14.429 27.168-44.083 79.664-56.33 93.463-4.473 5.039-9.853 10.159-14.9 14.658 22.747 8.833 88.655 35.597 140.659 68.367 0.131-0.001 0.252-0.042 0.384-0.038 21.116 0.58 44.555 2.428 63.028 7.055 30.74 7.697 49.167 28.895 55.72 32.233l0.003-0.004c31.906 7.835 95.442-11.691 103.985-29.614 8.418-17.683 15.486-31.735 21.555-43.12-22.557-15.402-106.038-88.771-147.018-136.298z" p-id="11759" fill="#2c2c2c"></path></svg>