<?xml version="1.0" standalone="no"?><!DOCTYPE svg PUBLIC "-//W3C//DTD SVG 1.1//EN" "http://www.w3.org/Graphics/SVG/1.1/DTD/svg11.dtd"><svg t="1747541792819" class="icon" viewBox="0 0 1024 1024" version="1.1" xmlns="http://www.w3.org/2000/svg" p-id="6356" xmlns:xlink="http://www.w3.org/1999/xlink" width="200" height="200"><path d="M340.138667 589.824c85.6064-79.018667 175.957333-91.7504 275.319466-28.125867-17.954133-16.418133-36.4544-32.8704-56.558933-51.4048 42.8032-65.194667 101.9904-103.389867 180.736-107.6224 79.2576-4.232533 141.6192 27.579733 182.818133 95.402667 62.3616 102.843733 34.372267 233.813333-61.269333 288.426667-44.373333 25.429333-94.6176 32.836267-144.7936 30.72-47.581867-2.116267-90.385067 9.557333-133.154133 28.637866-138.990933 62.020267-279.005867 48.2304-417.9968 1.024-14.779733-5.290667-29.047467-13.2096-42.8032-21.7088-52.3264-32.8704-61.303467-55.125333-49.664-115.575466 22.186667-110.7968 61.815467-214.698667 129.467733-306.926934a4620.868267 4620.868267 0 0 0 117.828267-169.642666c30.651733-45.568 69.7344-76.322133 125.2352-82.705067 43.861333-5.290667 87.722667-12.1856 131.584-13.755733 12.663467-0.546133 29.047467 10.069333 38.570666 20.650666 15.837867 16.964267 26.965333 38.7072 40.686934 57.275734 12.663467 17.476267 11.605333 32.324267-6.3488 42.939733-48.605867 28.603733-97.757867 48.2304-155.3408 22.766933-16.384-7.406933-39.1168-0.512-58.129067-2.628266-28.535467-3.720533-31.197867 20.138667-39.1168 36.5568-41.745067 85.879467-67.106133 175.479467-57.070933 275.6608z" fill="#2c2c2c" p-id="6357"></path></svg>